<svg version="1.1" id="Layer_1" xmlns="http://www.w3.org/2000/svg" xmlns:xlink="http://www.w3.org/1999/xlink" x="0px" y="0px"
	 width="100%" viewBox="0 0 512 512" enable-background="new 0 0 512 512" xml:space="preserve">
<path fill="#000000" opacity="1.000000" stroke="none" 
	d="
M513.000000,182.000000 
	C513.000000,292.288483 513.000000,402.576935 513.000000,512.932739 
	C342.447632,512.932739 171.895203,512.932739 1.000000,512.932739 
	C1.000000,438.311676 1.000000,363.622803 1.239699,288.138428 
	C2.013768,287.906372 2.548136,288.469849 3.018225,289.461304 
	C3.279720,292.333557 3.592355,294.779602 3.933330,297.221741 
	C6.871055,318.262146 13.093325,338.370117 21.866440,357.637726 
	C31.137020,377.997894 42.822132,396.840851 57.214764,414.131836 
	C68.205154,427.335510 80.348434,439.212585 93.695068,449.840363 
	C111.089394,463.691254 130.219452,474.741455 150.711563,483.465851 
	C175.366562,493.962555 201.149658,500.262939 227.743073,501.815125 
	C251.354263,503.193237 275.096161,502.549103 298.385132,497.079224 
	C316.564575,492.809418 334.347900,487.421936 351.283661,478.834412 
	C351.831329,478.627930 352.018555,478.365631 352.459351,478.006134 
	C370.878815,469.622253 387.799866,459.345886 402.434845,445.871918 
	C414.973145,434.328247 427.534546,422.593079 438.482422,409.592468 
	C452.684875,392.727020 463.304108,373.384613 472.049103,353.047333 
	C482.637207,328.423706 488.841125,302.711853 490.818146,276.105469 
	C491.801300,262.874298 490.875641,249.501266 490.898895,235.813751 
	C492.955505,230.287384 494.926788,225.139648 497.067993,219.669067 
	C501.635986,207.947495 505.999054,196.534973 510.483459,185.170303 
	C510.957306,183.969498 512.144043,183.050003 513.000000,182.000000 
z"/>
<path fill="#000000" opacity="1.000000" stroke="none" 
	d="
M1.000003,225.000000 
	C1.000000,150.369354 1.000000,75.738701 1.000000,1.054027 
	C171.548309,1.054027 342.096619,1.054027 513.000000,1.054027 
	C513.000000,57.687065 513.000000,114.374878 512.621643,171.534988 
	C505.434998,170.049225 498.676971,167.872711 491.783020,166.287079 
	C490.064911,165.891922 487.908234,167.403839 485.553284,168.020996 
	C481.457855,167.336914 477.762238,166.671021 474.048248,165.626923 
	C472.436554,161.720932 470.887054,158.172607 469.242767,154.668747 
	C460.029541,135.036011 449.305725,116.310257 434.611298,100.216759 
	C424.742950,89.408844 415.030670,78.274437 403.960571,68.789307 
	C385.550537,53.015182 364.795441,40.616734 342.425385,31.048857 
	C317.771454,20.504150 292.061066,13.661773 265.363464,12.268430 
	C245.471558,11.230274 225.466003,11.284953 205.559341,14.802170 
	C184.714020,18.485233 164.635757,24.285118 145.427597,32.990868 
	C113.518219,47.453217 85.669144,67.449051 62.438183,93.909096 
	C50.352047,107.675194 39.764168,122.378265 30.977430,138.382782 
	C16.425610,164.888062 6.611605,192.995300 2.919373,223.123703 
	C2.834392,223.817139 1.664072,224.377548 1.000003,225.000000 
z"/>
<path fill="#FFC937" opacity="1.000000" stroke="none" 
	d="
M1.000003,225.468658 
	C1.664072,224.377548 2.834392,223.817139 2.919373,223.123703 
	C6.611605,192.995300 16.425610,164.888062 30.977430,138.382782 
	C39.764168,122.378265 50.352047,107.675194 62.438183,93.909096 
	C85.669144,67.449051 113.518219,47.453217 145.427597,32.990868 
	C164.635757,24.285118 184.714020,18.485233 205.559341,14.802170 
	C225.466003,11.284953 245.471558,11.230274 265.363464,12.268430 
	C292.061066,13.661773 317.771454,20.504150 342.425385,31.048857 
	C364.795441,40.616734 385.550537,53.015182 403.960571,68.789307 
	C415.030670,78.274437 424.742950,89.408844 434.611298,100.216759 
	C449.305725,116.310257 460.029541,135.036011 469.242767,154.668747 
	C470.887054,158.172607 472.436554,161.720932 473.649078,165.640640 
	C468.654205,164.918976 464.018524,163.886932 459.431458,162.671249 
	C453.620422,161.131180 447.848938,159.441864 441.981659,157.476608 
	C434.813507,141.210419 425.355774,126.820007 414.133423,113.496223 
	C391.099518,86.149040 362.837402,66.295578 329.298615,54.020512 
	C323.576508,51.926235 317.512482,50.766083 311.391205,48.931973 
	C306.611847,38.452343 298.127991,34.962410 287.628937,35.297844 
	C278.650726,35.584690 270.127045,37.837418 261.703674,42.082726 
	C248.820587,43.317875 236.416733,44.587841 223.605087,45.903915 
	C218.860840,46.996910 214.524384,48.043797 209.876144,49.101547 
	C209.039291,49.410545 208.514191,49.708675 207.992722,49.999249 
	C207.996338,49.991688 208.012711,49.995426 207.603607,49.987122 
	C206.050140,50.170280 204.877106,50.258736 203.765640,50.568260 
	C175.010086,58.576130 149.839630,73.233963 127.729881,92.959839 
	C104.821381,113.398346 87.363068,137.939987 75.791985,166.503708 
	C69.458183,182.138962 64.996422,198.274658 62.918678,215.376419 
	C49.418522,232.288910 36.091888,248.923935 22.666201,265.478607 
	C16.235044,273.408661 9.616294,281.186523 3.082505,289.033325 
	C2.548136,288.469849 2.013768,287.906372 1.239699,287.671448 
	C1.000000,267.312439 1.000000,246.624878 1.000003,225.468658 
z"/>
<path fill="#431F3F" opacity="1.000000" stroke="none" 
	d="
M485.953125,168.039215 
	C487.908234,167.403839 490.064911,165.891922 491.783020,166.287079 
	C498.676971,167.872711 505.434998,170.049225 512.621643,172.003647 
	C513.000000,175.030594 513.000000,178.061188 513.000000,181.545898 
	C512.144043,183.050003 510.957306,183.969498 510.483459,185.170303 
	C505.999054,196.534973 501.635986,207.947495 496.803406,219.474258 
	C490.418457,209.792130 484.465149,199.983704 478.519012,190.170914 
	C476.301178,186.510849 476.547394,183.029327 478.944794,179.458054 
	C481.431915,175.753159 483.629120,171.853622 485.953125,168.039215 
z"/>
<path fill="#BA4C2E" opacity="1.000000" stroke="none" 
	d="
M485.553284,168.021011 
	C483.629120,171.853622 481.431915,175.753159 478.944794,179.458054 
	C476.547394,183.029327 476.301178,186.510849 478.519012,190.170914 
	C484.465149,199.983704 490.418457,209.792130 496.633484,219.797119 
	C494.926788,225.139648 492.955505,230.287384 490.656372,236.033569 
	C489.336517,238.538223 488.021454,240.345795 487.404694,242.366501 
	C483.243896,255.998810 473.447296,262.729645 459.637512,265.082581 
	C458.290771,265.051819 457.309265,265.060516 455.832977,265.057129 
	C431.092194,265.045105 406.846222,265.045105 382.600220,265.045105 
	C384.732391,266.130219 386.949158,266.598633 389.179230,266.991425 
	C406.490082,270.040314 423.803528,273.074554 440.881226,276.364258 
	C434.722351,278.419525 428.832672,281.637390 422.868591,281.781769 
	C398.003632,282.383484 373.116333,282.060608 347.753967,282.061218 
	C330.048431,280.825256 312.746979,280.263000 295.625488,278.204071 
	C277.581268,276.034149 259.999146,271.419373 243.524994,263.353088 
	C240.630371,261.935791 238.843262,262.596313 236.955078,265.356354 
	C234.629333,268.755920 231.714371,271.810089 228.749252,274.700897 
	C224.461746,278.880890 218.890717,277.303833 217.125320,271.624878 
	C216.038025,268.127228 214.987839,264.617523 213.855469,261.134521 
	C212.912125,258.232880 211.719559,257.836456 208.764938,259.591064 
	C201.684311,263.795929 194.373428,267.710999 186.815216,270.948700 
	C184.780746,271.820221 180.541534,270.668762 179.108078,268.949951 
	C177.643967,267.194397 177.200333,262.927368 178.343277,260.914215 
	C190.055084,240.285599 195.775299,218.632782 194.255066,194.586182 
	C192.658432,169.331055 199.384018,145.821808 214.219070,124.906181 
	C215.029739,123.763229 214.984344,120.712891 214.090363,119.864487 
	C206.136353,112.315933 197.901184,105.063637 189.763062,97.381546 
	C189.404510,96.133278 189.179688,95.125778 188.637115,94.336807 
	C179.500671,81.051331 184.602051,69.059364 193.177063,60.706284 
	C197.499008,56.496181 203.028992,53.526184 208.012711,49.995426 
	C208.012711,49.995426 207.996338,49.991688 208.300781,49.983330 
	C209.132782,49.680206 209.660355,49.385445 210.187912,49.090683 
	C214.524384,48.043797 218.860840,46.996910 224.063324,45.945816 
	C233.872879,45.720219 242.740524,45.729103 249.080109,54.180717 
	C250.894760,57.740276 252.804443,60.874977 254.160904,64.233131 
	C255.471710,67.478218 257.020325,67.794464 260.224121,66.561310 
	C270.388489,62.649036 280.872894,60.566662 291.801056,62.981850 
	C300.834656,64.978325 309.861847,67.003761 319.232056,69.181534 
	C333.074432,72.882828 346.485840,76.827789 360.102234,79.849152 
	C376.254700,83.433258 386.966034,92.763367 393.257294,107.868553 
	C396.129730,114.765190 400.154480,121.189659 402.915680,128.123352 
	C410.038391,146.009277 423.341705,155.395569 442.060394,157.816910 
	C447.848938,159.441864 453.620422,161.131180 459.431458,162.671249 
	C464.018524,163.886932 468.654205,164.918976 473.667480,166.018860 
	C477.762238,166.671021 481.457855,167.336914 485.553284,168.021011 
M232.310379,109.202255 
	C232.953232,109.728065 233.622849,110.224609 234.234650,110.784332 
	C239.029556,115.171021 240.114243,114.944794 242.214905,108.751030 
	C243.760040,104.195267 245.411911,99.633484 246.415604,94.945793 
	C248.095734,87.098785 248.670654,79.142136 245.614532,71.436272 
	C243.489700,66.078606 240.123947,61.844826 233.926453,61.092529 
	C227.017197,60.253838 220.936371,61.995758 216.787704,67.934669 
	C212.702499,73.782738 211.036407,80.468178 215.053711,86.681290 
	C220.055161,94.416473 226.107376,101.472267 232.310379,109.202255 
M349.078461,137.148987 
	C351.679016,142.534958 352.330536,142.494293 357.734406,140.386795 
	C359.988831,139.507568 362.899811,140.294373 365.511566,140.354355 
	C367.591980,140.402130 370.316437,141.327042 371.577850,140.347198 
	C372.964539,139.270020 373.799255,136.331741 373.494415,134.424942 
	C372.110260,125.765915 365.919220,124.088814 360.519012,124.127319 
	C354.378723,124.171089 349.799408,129.363190 349.078461,137.148987 
z"/>
<path fill="#82260D" opacity="1.000000" stroke="none" 
	d="
M3.018225,289.461304 
	C9.616294,281.186523 16.235044,273.408661 22.666201,265.478607 
	C36.091888,248.923935 49.418522,232.288910 63.201183,215.198639 
	C82.048294,191.927689 100.480072,169.145004 118.924881,146.790039 
	C118.684845,148.343552 118.639595,149.570480 118.148155,150.580246 
	C107.619774,172.213531 103.480782,195.424225 102.166664,219.110580 
	C100.816109,243.453629 102.926292,267.696350 108.992828,291.335632 
	C115.111946,315.179810 111.830101,337.782776 102.600105,360.065216 
	C101.718040,362.194641 101.443924,365.868561 102.665001,367.222748 
	C103.955444,368.653900 107.705780,369.093079 109.800125,368.342682 
	C116.018509,366.114777 121.967369,363.124298 127.983322,360.348938 
	C129.499588,359.649475 130.872757,358.639740 132.757812,357.503723 
	C133.746292,374.197998 132.433136,389.661285 126.594894,404.496979 
	C125.458260,407.385345 123.801674,410.692719 126.840286,412.606689 
	C128.773865,413.824615 132.415833,413.717316 134.688416,412.764771 
	C143.493591,409.074127 152.056839,404.806305 161.006256,400.614777 
	C161.006256,408.219360 160.434097,416.320557 161.143600,424.307953 
	C162.147308,435.607452 166.147781,446.034271 173.541733,454.818970 
	C174.815414,456.332245 177.628708,457.759155 179.304474,457.373444 
	C180.879547,457.010956 182.227341,454.342743 183.051300,452.421509 
	C183.810318,450.651703 183.624741,448.500610 184.055527,446.561981 
	C185.543625,439.865326 186.366302,432.898193 191.024750,427.163239 
	C192.684494,428.230316 194.008911,428.943695 195.179428,429.854767 
	C218.645401,448.119232 244.993851,460.720459 273.681732,467.918182 
	C289.896942,471.986511 306.564972,474.481812 323.159698,476.714935 
	C332.453857,477.965576 342.014679,477.234650 351.535797,477.407654 
	C351.616241,477.418762 351.651154,477.577393 351.466339,477.883118 
	C351.200317,478.412689 351.119080,478.636566 351.037872,478.860443 
	C334.347900,487.421936 316.564575,492.809418 298.385132,497.079224 
	C275.096161,502.549103 251.354263,503.193237 227.743073,501.815125 
	C201.149658,500.262939 175.366562,493.962555 150.711563,483.465851 
	C130.219452,474.741455 111.089394,463.691254 93.695068,449.840363 
	C80.348434,439.212585 68.205154,427.335510 57.214764,414.131836 
	C42.822132,396.840851 31.137020,377.997894 21.866440,357.637726 
	C13.093325,338.370117 6.871055,318.262146 3.933330,297.221741 
	C3.592355,294.779602 3.279720,292.333557 3.018225,289.461304 
z"/>
<path fill="#FFC937" opacity="1.000000" stroke="none" 
	d="
M460.002686,265.121979 
	C473.447296,262.729645 483.243896,255.998810 487.404694,242.366501 
	C488.021454,240.345795 489.336517,238.538223 490.571045,236.412231 
	C490.875641,249.501266 491.801300,262.874298 490.818146,276.105469 
	C488.841125,302.711853 482.637207,328.423706 472.049103,353.047333 
	C463.304108,373.384613 452.684875,392.727020 438.482422,409.592468 
	C427.534546,422.593079 414.973145,434.328247 402.434845,445.871918 
	C387.799866,459.345886 370.878815,469.622253 352.392517,477.852173 
	C351.957489,477.713623 351.651154,477.577393 351.651154,477.577393 
	C351.651154,477.577393 351.616241,477.418762 351.407684,477.077087 
	C350.600861,474.683746 350.074036,472.608093 349.392822,470.584381 
	C344.611816,456.380707 339.798950,442.187744 335.317261,427.839233 
	C355.214142,419.388733 373.393555,408.866211 389.671051,395.023773 
	C417.718414,371.172089 438.323425,342.165161 449.872650,307.221527 
	C454.386505,293.564178 456.691589,279.176849 460.002686,265.121979 
z"/>
<path fill="#9E391E" opacity="1.000000" stroke="none" 
	d="
M351.466339,477.883118 
	C351.651154,477.577393 351.957489,477.713623 352.024292,477.867554 
	C352.018555,478.365631 351.831329,478.627930 351.283661,478.834412 
	C351.119080,478.636566 351.200317,478.412689 351.466339,477.883118 
z"/>
<path fill="#FAAA1F" opacity="1.000000" stroke="none" 
	d="
M118.911865,146.362305 
	C100.480072,169.145004 82.048294,191.927689 63.334011,214.888153 
	C64.996422,198.274658 69.458183,182.138962 75.791985,166.503708 
	C87.363068,137.939987 104.821381,113.398346 127.729881,92.959839 
	C149.839630,73.233963 175.010086,58.576130 203.765640,50.568260 
	C204.877106,50.258736 206.050140,50.170280 207.603607,49.987122 
	C203.028992,53.526184 197.499008,56.496181 193.177063,60.706284 
	C184.602051,69.059364 179.500671,81.051331 188.637115,94.336807 
	C189.179688,95.125778 189.404510,96.133278 189.412689,97.471115 
	C180.413559,101.708206 171.903824,105.834213 163.118652,109.252319 
	C144.125809,116.642006 130.349106,130.065704 118.911865,146.362305 
z"/>
<path fill="#F9A91F" opacity="1.000000" stroke="none" 
	d="
M441.981659,157.476608 
	C423.341705,155.395569 410.038391,146.009277 402.915680,128.123352 
	C400.154480,121.189659 396.129730,114.765190 393.257294,107.868553 
	C386.966034,92.763367 376.254700,83.433258 360.102234,79.849152 
	C346.485840,76.827789 333.074432,72.882828 319.184448,68.811264 
	C316.399902,61.908691 314.003143,55.541542 311.606415,49.174385 
	C317.512482,50.766083 323.576508,51.926235 329.298615,54.020512 
	C362.837402,66.295578 391.099518,86.149040 414.133423,113.496223 
	C425.355774,126.820007 434.813507,141.210419 441.981659,157.476608 
z"/>
<path fill="#9F3A1E" opacity="1.000000" stroke="none" 
	d="
M311.391205,48.931976 
	C314.003143,55.541542 316.399902,61.908691 318.844238,68.646103 
	C309.861847,67.003761 300.834656,64.978325 291.801056,62.981850 
	C280.872894,60.566662 270.388489,62.649036 260.224121,66.561310 
	C257.020325,67.794464 255.471710,67.478218 254.160904,64.233131 
	C252.804443,60.874977 250.894760,57.740276 249.273865,53.917191 
	C253.608078,49.590214 257.895477,45.853878 262.182892,42.117546 
	C270.127045,37.837418 278.650726,35.584690 287.628937,35.297844 
	C298.127991,34.962410 306.611847,38.452343 311.391205,48.931976 
z"/>
<path fill="#F8A820" opacity="1.000000" stroke="none" 
	d="
M261.703674,42.082726 
	C257.895477,45.853878 253.608078,49.590214 249.126892,53.590080 
	C242.740524,45.729103 233.872879,45.720219 224.471100,45.899704 
	C236.416733,44.587841 248.820587,43.317875 261.703674,42.082726 
z"/>
<path fill="#FAAA1F" opacity="1.000000" stroke="none" 
	d="
M209.876144,49.101547 
	C209.660355,49.385445 209.132782,49.680206 208.297165,49.990891 
	C208.514191,49.708675 209.039291,49.410545 209.876144,49.101547 
z"/>
<path fill="#9E391E" opacity="1.000000" stroke="none" 
	d="
M118.924881,146.790039 
	C130.349106,130.065704 144.125809,116.642006 163.118652,109.252319 
	C171.903824,105.834213 180.413559,101.708206 189.398544,97.813568 
	C197.901184,105.063637 206.136353,112.315933 214.090363,119.864487 
	C214.984344,120.712891 215.029739,123.763229 214.219070,124.906181 
	C199.384018,145.821808 192.658432,169.331055 194.255066,194.586182 
	C195.775299,218.632782 190.055084,240.285599 178.343277,260.914215 
	C177.200333,262.927368 177.643967,267.194397 179.108078,268.949951 
	C180.541534,270.668762 184.780746,271.820221 186.815216,270.948700 
	C194.373428,267.710999 201.684311,263.795929 208.764938,259.591064 
	C211.719559,257.836456 212.912125,258.232880 213.855469,261.134521 
	C214.987839,264.617523 216.038025,268.127228 217.125320,271.624878 
	C218.890717,277.303833 224.461746,278.880890 228.749252,274.700897 
	C231.714371,271.810089 234.629333,268.755920 236.955078,265.356354 
	C238.843262,262.596313 240.630371,261.935791 243.524994,263.353088 
	C259.999146,271.419373 277.581268,276.034149 295.625488,278.204071 
	C312.746979,280.263000 330.048431,280.825256 347.565887,282.347504 
	C347.376862,283.106537 346.929810,283.612396 346.403229,284.013916 
	C318.269043,305.466095 304.450958,345.250641 318.656860,381.919159 
	C324.540894,397.107025 329.575378,412.624054 334.996277,427.991364 
	C339.798950,442.187744 344.611816,456.380707 349.392822,470.584381 
	C350.074036,472.608093 350.600861,474.683746 351.327240,477.065979 
	C342.014679,477.234650 332.453857,477.965576 323.159698,476.714935 
	C306.564972,474.481812 289.896942,471.986511 273.681732,467.918182 
	C244.993851,460.720459 218.645401,448.119232 195.179428,429.854767 
	C194.008911,428.943695 192.684494,428.230316 191.024750,427.163239 
	C186.366302,432.898193 185.543625,439.865326 184.055527,446.561981 
	C183.624741,448.500610 183.810318,450.651703 183.051300,452.421509 
	C182.227341,454.342743 180.879547,457.010956 179.304474,457.373444 
	C177.628708,457.759155 174.815414,456.332245 173.541733,454.818970 
	C166.147781,446.034271 162.147308,435.607452 161.143600,424.307953 
	C160.434097,416.320557 161.006256,408.219360 161.006256,400.614777 
	C152.056839,404.806305 143.493591,409.074127 134.688416,412.764771 
	C132.415833,413.717316 128.773865,413.824615 126.840286,412.606689 
	C123.801674,410.692719 125.458260,407.385345 126.594894,404.496979 
	C132.433136,389.661285 133.746292,374.197998 132.757812,357.503723 
	C130.872757,358.639740 129.499588,359.649475 127.983322,360.348938 
	C121.967369,363.124298 116.018509,366.114777 109.800125,368.342682 
	C107.705780,369.093079 103.955444,368.653900 102.665001,367.222748 
	C101.443924,365.868561 101.718040,362.194641 102.600105,360.065216 
	C111.830101,337.782776 115.111946,315.179810 108.992828,291.335632 
	C102.926292,267.696350 100.816109,243.453629 102.166664,219.110580 
	C103.480782,195.424225 107.619774,172.213531 118.148155,150.580246 
	C118.639595,149.570480 118.684845,148.343552 118.924881,146.790039 
z"/>
<path fill="#FAAA1F" opacity="1.000000" stroke="none" 
	d="
M335.317261,427.839233 
	C329.575378,412.624054 324.540894,397.107025 318.656860,381.919159 
	C304.450958,345.250641 318.269043,305.466095 346.403229,284.013916 
	C346.929810,283.612396 347.376862,283.106537 348.049133,282.363068 
	C373.116333,282.060608 398.003632,282.383484 422.868591,281.781769 
	C428.832672,281.637390 434.722351,278.419525 441.214294,276.278381 
	C446.630798,272.317413 451.479279,268.693298 456.327759,265.069183 
	C457.309265,265.060516 458.290771,265.051819 459.637482,265.082581 
	C456.691589,279.176849 454.386505,293.564178 449.872650,307.221527 
	C438.323425,342.165161 417.718414,371.172089 389.671051,395.023773 
	C373.393555,408.866211 355.214142,419.388733 335.317261,427.839233 
z"/>
<path fill="#9E391E" opacity="1.000000" stroke="none" 
	d="
M232.008102,109.011848 
	C226.107376,101.472267 220.055161,94.416473 215.053711,86.681290 
	C211.036407,80.468178 212.702499,73.782738 216.787704,67.934669 
	C220.936371,61.995758 227.017197,60.253838 233.926453,61.092529 
	C240.123947,61.844826 243.489700,66.078606 245.614532,71.436272 
	C248.670654,79.142136 248.095734,87.098785 246.415604,94.945793 
	C245.411911,99.633484 243.760040,104.195267 242.214905,108.751030 
	C240.114243,114.944794 239.029556,115.171021 234.234650,110.784332 
	C233.622849,110.224609 232.953232,109.728065 232.008102,109.011848 
z"/>
<path fill="#85280E" opacity="1.000000" stroke="none" 
	d="
M455.832977,265.057129 
	C451.479279,268.693298 446.630798,272.317413 441.449249,276.027466 
	C423.803528,273.074554 406.490082,270.040314 389.179230,266.991425 
	C386.949158,266.598633 384.732391,266.130219 382.600220,265.045105 
	C406.846222,265.045105 431.092194,265.045105 455.832977,265.057129 
z"/>
<path fill="#44203F" opacity="1.000000" stroke="none" 
	d="
M349.068207,136.754761 
	C349.799408,129.363190 354.378723,124.171089 360.519012,124.127319 
	C365.919220,124.088814 372.110260,125.765915 373.494415,134.424942 
	C373.799255,136.331741 372.964539,139.270020 371.577850,140.347198 
	C370.316437,141.327042 367.591980,140.402130 365.511566,140.354355 
	C362.899811,140.294373 359.988831,139.507568 357.734406,140.386795 
	C352.330536,142.494293 351.679016,142.534958 349.068207,136.754761 
z"/>
</svg>